<?xml version="1.0" encoding="UTF-8" standalone="no"?>
<svg
   xmlns:dc="http://purl.org/dc/elements/1.1/"
   xmlns:cc="http://creativecommons.org/ns#"
   xmlns:rdf="http://www.w3.org/1999/02/22-rdf-syntax-ns#"
   xmlns:svg="http://www.w3.org/2000/svg"
   xmlns="http://www.w3.org/2000/svg"
   xmlns:sodipodi="http://sodipodi.sourceforge.net/DTD/sodipodi-0.dtd"
   xmlns:inkscape="http://www.inkscape.org/namespaces/inkscape"
   id="svg8"
   version="1.1"
   viewBox="0 0 147.63773 67.108925"
   height="67.108925mm"
   width="147.63773mm"
   sodipodi:docname="gearsverkefni6.svg"
   inkscape:version="1.0.1 (3bc2e813f5, 2020-09-07)">
  <defs
     id="defs2">
    <rect
       x="182.65698"
       y="186.24777"
       width="8.2209826"
       height="4.2522321"
       id="rect1230" />
    <rect
       x="140.41815"
       y="181.71205"
       width="8.7879467"
       height="5.2916665"
       id="rect1053" />
  </defs>
  <sodipodi:namedview
     id="base"
     pagecolor="#ffffff"
     bordercolor="#666666"
     borderopacity="1.0"
     inkscape:pageopacity="0.0"
     inkscape:pageshadow="2"
     inkscape:zoom="1.979899"
     inkscape:cx="284.91636"
     inkscape:cy="158.70712"
     inkscape:document-units="mm"
     inkscape:current-layer="layer1"
     inkscape:document-rotation="0"
     showgrid="false"
     showborder="true"
     inkscape:window-width="2560"
     inkscape:window-height="1377"
     inkscape:window-x="-8"
     inkscape:window-y="-8"
     inkscape:window-maximized="1"
     inkscape:snap-global="false"
     fit-margin-top="0"
     fit-margin-left="0"
     fit-margin-right="0"
     fit-margin-bottom="0" />
  <metadata
     id="metadata5">
    <rdf:RDF>
      <cc:Work
         rdf:about="">
        <dc:format>image/svg+xml</dc:format>
        <dc:type
           rdf:resource="http://purl.org/dc/dcmitype/StillImage" />
        <dc:title></dc:title>
      </cc:Work>
    </rdf:RDF>
  </metadata>
  <g
     inkscape:label="Layer 1"
     inkscape:groupmode="layer"
     id="layer1"
     transform="translate(-130.52801,-130.95718)">
    <g
       inkscape:label="Rendered Gears"
       transform="translate(138.60639,169.25128)"
       id="g1011"
       style="fill:#ffffff;fill-opacity:1">
      <path
         style="fill:#ffffff;stroke:#000000;stroke-width:0.264583;fill-opacity:1"
         d="m 4.6685,-1.00118 1.18078,-0.25322 0.39459,0.01242 1.70222,0.81147 V 0.43051 L 6.24387,1.24198 5.84928,1.2544 4.6685,1.00118 4.00907,2.59319 5.02306,3.24907 5.2933,3.53687 5.92315,5.31432 5.31432,5.92315 3.53687,5.2933 3.24907,5.02306 2.59319,4.00907 1.00118,4.6685 1.2544,5.84928 1.24198,6.24387 0.43051,7.94609 H -0.43051 L -1.24198,6.24387 -1.2544,5.84928 -1.00118,4.6685 -2.59319,4.00907 -3.24907,5.02306 -3.53687,5.2933 -5.31432,5.92315 -5.92315,5.31432 -5.2933,3.53687 -5.02306,3.24907 -4.00907,2.59319 -4.6685,1.00118 -5.84928,1.2544 -6.24387,1.24198 -7.94609,0.43051 v -0.86102 l 1.70222,-0.81147 0.39459,-0.01242 1.18078,0.25322 0.65943,-1.59201 -1.01399,-0.65588 -0.27024,-0.2878 -0.62985,-1.77745 0.60883,-0.60883 1.77745,0.62985 0.2878,0.27024 0.65588,1.01399 1.59201,-0.65943 -0.25322,-1.18078 0.01242,-0.39459 0.81147,-1.70222 h 0.86102 l 0.81147,1.70222 0.01242,0.39459 -0.25322,1.18078 1.59201,0.65943 0.65588,-1.01399 0.2878,-0.27024 1.77745,-0.62985 0.60883,0.60883 -0.62985,1.77745 -0.27024,0.2878 -1.01399,0.65588 z"
         id="path1007" />
      <circle
         style="fill:#ffffff;stroke:#000000;stroke-width:0.264583;fill-opacity:1"
         id="path1009"
         cx="0"
         cy="0"
         r="0.75" />
    </g>
    <g
       inkscape:label="Rendered Gears"
       transform="rotate(2.1085912,-4466.6708,4400.9658)"
       id="g1034"
       style="fill:#ffffff;fill-opacity:1">
      <path
         style="fill:#ffffff;fill-opacity:1;stroke:#000000;stroke-width:0.264583"
         d="m 11.0697,-1.25711 0.8184,-0.09295 0.783,0.10207 1.643,0.71836 v 1.05926 l -1.643,0.71836 -0.783,0.10207 -0.8184,-0.09295 -0.3616,1.81766 0.7917,0.22733 0.6843,0.39392 1.2431,1.29246 L 13.0219,5.9671 11.229,6.00201 10.4665,5.79668 9.74599,5.39761 8.71637,6.93854 9.36081,7.45154 9.84227,8.07735 10.4961,9.74713 9.74713,10.4961 8.07735,9.84227 7.45154,9.36081 6.93854,8.71637 5.39761,9.74599 5.79668,10.4665 6.00201,11.229 5.9671,13.0219 4.98848,13.4272 3.69602,12.1841 3.3021,11.4998 3.07477,10.7081 l -1.81766,0.3616 0.09295,0.8184 -0.10207,0.783 -0.71836,1.643 h -1.05926 l -0.71836,-1.643 -0.10207,-0.783 0.09295,-0.8184 -1.81766,-0.3616 -0.22733,0.7917 -0.39392,0.6843 -1.29246,1.2431 -0.97862,-0.4053 -0.03491,-1.7929 0.20533,-0.7625 0.39907,-0.72051 -1.54093,-1.02962 -0.513,0.64444 -0.62581,0.48146 -1.66978,0.65383 -0.74897,-0.74897 0.65383,-1.66978 0.48146,-0.62581 0.64444,-0.513 -1.02962,-1.54093 -0.72051,0.39907 -0.7625,0.20533 -1.7929,-0.03491 -0.4053,-0.97862 1.2431,-1.29246 0.6843,-0.39392 0.7917,-0.22733 -0.3616,-1.81766 -0.8184,0.09295 -0.783,-0.10207 -1.643,-0.71836 v -1.05926 l 1.643,-0.71836 0.783,-0.10207 0.8184,0.09295 0.3616,-1.81766 -0.7917,-0.22733 -0.6843,-0.39392 -1.2431,-1.29246 0.4053,-0.97862 1.7929,-0.03491 0.7625,0.20533 0.72051,0.39907 1.02962,-1.54093 -0.64444,-0.513 -0.48146,-0.62581 -0.65383,-1.66978 0.74897,-0.74897 1.66978,0.65383 0.62581,0.48146 0.513,0.64444 1.54093,-1.02962 -0.39907,-0.72051 -0.20533,-0.7625 0.03491,-1.7929 0.97862,-0.4053 1.29246,1.2431 0.39392,0.6843 0.22733,0.7917 1.81766,-0.3616 -0.09295,-0.8184 0.10207,-0.783 0.71836,-1.643 h 1.05926 l 0.71836,1.643 0.10207,0.783 -0.09295,0.8184 1.81766,0.3616 0.22733,-0.7917 0.39392,-0.6843 1.29246,-1.2431 0.97862,0.4053 0.03491,1.7929 -0.20533,0.7625 -0.39907,0.72051 1.54093,1.02962 0.513,-0.64444 0.62581,-0.48146 1.66978,-0.65383 0.74897,0.74897 -0.65383,1.66978 -0.48146,0.62581 -0.64444,0.513 1.02962,1.54093 0.72051,-0.39907 0.7625,-0.20533 1.7929,0.03491 0.4053,0.97862 -1.2431,1.29246 -0.6843,0.39392 -0.7917,0.22733 z"
         id="path1030" />
      <circle
         style="fill:#ffffff;fill-opacity:1;stroke:#000000;stroke-width:0.264583"
         id="path1032"
         cx="0"
         cy="0"
         r="0.75" />
    </g>
    <text
       xml:space="preserve"
       id="text1051"
       style="font-size:3.175px;line-height:1.25;font-family:sans-serif;letter-spacing:0px;word-spacing:0px;white-space:pre;shape-inside:url(#rect1053);"
       transform="translate(0.28348214,5.0318313)"><tspan
         x="140.41797"
         y="184.60954"><tspan
           style="font-size:3.175px">1/2</tspan></tspan></text>
    <text
       xml:space="preserve"
       style="font-size:3.52777px;line-height:1.25;font-family:sans-serif;letter-spacing:0px;word-spacing:0px;stroke-width:0.264583"
       x="166.78198"
       y="189.74921"
       id="text1059"><tspan
         sodipodi:role="line"
         id="tspan1057"
         x="166.78198"
         y="189.74921"
         style="stroke-width:0.264583">1/2</tspan></text>
    <text
       xml:space="preserve"
       id="text1228"
       style="font-size:3.52778px;line-height:1.25;font-family:sans-serif;letter-spacing:0px;word-spacing:0px;white-space:pre;shape-inside:url(#rect1230);"
       transform="translate(0,0.28265531)"><tspan
         x="182.65625"
         y="189.46655"><tspan>1/3</tspan></tspan></text>
    <text
       xml:space="preserve"
       style="font-size:3.52777px;line-height:1.25;font-family:sans-serif;letter-spacing:0px;word-spacing:0px;stroke-width:0.264583"
       x="212.98958"
       y="192.86235"
       id="text1236"><tspan
         sodipodi:role="line"
         id="tspan1234"
         x="212.98958"
         y="192.86235"
         style="stroke-width:0.264583">1/5</tspan></text>
  </g>
  <g
     inkscape:groupmode="layer"
     id="layer3"
     inkscape:label="Layer 2"
     transform="translate(-130.52801,-130.95718)">
    <g
       inkscape:label="Rendered Gears"
       transform="rotate(9.9644589,-868.65843,1107.7909)"
       id="g991"
       style="fill:#ffffff;fill-opacity:1">
      <path
         style="fill:#ffffff;fill-opacity:1;stroke:#000000;stroke-width:0.264583"
         d="m 11.0697,-1.25711 0.8184,-0.09295 0.783,0.10207 1.643,0.71836 v 1.05926 l -1.643,0.71836 -0.783,0.10207 -0.8184,-0.09295 -0.3616,1.81766 0.7917,0.22733 0.6843,0.39392 1.2431,1.29246 L 13.0219,5.9671 11.229,6.00201 10.4665,5.79668 9.74599,5.39761 8.71637,6.93854 9.36081,7.45154 9.84227,8.07735 10.4961,9.74713 9.74713,10.4961 8.07735,9.84227 7.45154,9.36081 6.93854,8.71637 5.39761,9.74599 5.79668,10.4665 6.00201,11.229 5.9671,13.0219 4.98848,13.4272 3.69602,12.1841 3.3021,11.4998 3.07477,10.7081 l -1.81766,0.3616 0.09295,0.8184 -0.10207,0.783 -0.71836,1.643 h -1.05926 l -0.71836,-1.643 -0.10207,-0.783 0.09295,-0.8184 -1.81766,-0.3616 -0.22733,0.7917 -0.39392,0.6843 -1.29246,1.2431 -0.97862,-0.4053 -0.03491,-1.7929 0.20533,-0.7625 0.39907,-0.72051 -1.54093,-1.02962 -0.513,0.64444 -0.62581,0.48146 -1.66978,0.65383 -0.74897,-0.74897 0.65383,-1.66978 0.48146,-0.62581 0.64444,-0.513 -1.02962,-1.54093 -0.72051,0.39907 -0.7625,0.20533 -1.7929,-0.03491 -0.4053,-0.97862 1.2431,-1.29246 0.6843,-0.39392 0.7917,-0.22733 -0.3616,-1.81766 -0.8184,0.09295 -0.783,-0.10207 -1.643,-0.71836 v -1.05926 l 1.643,-0.71836 0.783,-0.10207 0.8184,0.09295 0.3616,-1.81766 -0.7917,-0.22733 -0.6843,-0.39392 -1.2431,-1.29246 0.4053,-0.97862 1.7929,-0.03491 0.7625,0.20533 0.72051,0.39907 1.02962,-1.54093 -0.64444,-0.513 -0.48146,-0.62581 -0.65383,-1.66978 0.74897,-0.74897 1.66978,0.65383 0.62581,0.48146 0.513,0.64444 1.54093,-1.02962 -0.39907,-0.72051 -0.20533,-0.7625 0.03491,-1.7929 0.97862,-0.4053 1.29246,1.2431 0.39392,0.6843 0.22733,0.7917 1.81766,-0.3616 -0.09295,-0.8184 0.10207,-0.783 0.71836,-1.643 h 1.05926 l 0.71836,1.643 0.10207,0.783 -0.09295,0.8184 1.81766,0.3616 0.22733,-0.7917 0.39392,-0.6843 1.29246,-1.2431 0.97862,0.4053 0.03491,1.7929 -0.20533,0.7625 -0.39907,0.72051 1.54093,1.02962 0.513,-0.64444 0.62581,-0.48146 1.66978,-0.65383 0.74897,0.74897 -0.65383,1.66978 -0.48146,0.62581 -0.64444,0.513 1.02962,1.54093 0.72051,-0.39907 0.7625,-0.20533 1.7929,0.03491 0.4053,0.97862 -1.2431,1.29246 -0.6843,0.39392 -0.7917,0.22733 z"
         id="path987" />
      <circle
         style="fill:#ffffff;fill-opacity:1;stroke:#000000;stroke-width:0.264583"
         id="path989"
         cx="0"
         cy="0"
         r="0.75" />
    </g>
    <g
       inkscape:label="Rendered Gears"
       transform="translate(179.78832,188.33574)"
       id="g1088"
       style="fill:none;fill-opacity:1">
      <g
         id="g1226"
         transform="translate(-1.2027091,-21.314741)"
         style="fill:none;fill-opacity:1">
        <path
           style="fill:none;fill-opacity:1;stroke:#000000;stroke-width:0.264583"
           d="m 4.6685,-1.00118 1.18078,-0.25322 0.39459,0.01242 1.70222,0.81147 V 0.43051 L 6.24387,1.24198 5.84928,1.2544 4.6685,1.00118 4.00907,2.59319 5.02306,3.24907 5.2933,3.53687 5.92315,5.31432 5.31432,5.92315 3.53687,5.2933 3.24907,5.02306 2.59319,4.00907 1.00118,4.6685 1.2544,5.84928 1.24198,6.24387 0.43051,7.94609 H -0.43051 L -1.24198,6.24387 -1.2544,5.84928 -1.00118,4.6685 -2.59319,4.00907 -3.24907,5.02306 -3.53687,5.2933 -5.31432,5.92315 -5.92315,5.31432 -5.2933,3.53687 -5.02306,3.24907 -4.00907,2.59319 -4.6685,1.00118 -5.84928,1.2544 -6.24387,1.24198 -7.94609,0.43051 v -0.86102 l 1.70222,-0.81147 0.39459,-0.01242 1.18078,0.25322 0.65943,-1.59201 -1.01399,-0.65588 -0.27024,-0.2878 -0.62985,-1.77745 0.60883,-0.60883 1.77745,0.62985 0.2878,0.27024 0.65588,1.01399 1.59201,-0.65943 -0.25322,-1.18078 0.01242,-0.39459 0.81147,-1.70222 h 0.86102 l 0.81147,1.70222 0.01242,0.39459 -0.25322,1.18078 1.59201,0.65943 0.65588,-1.01399 0.2878,-0.27024 1.77745,-0.62985 0.60883,0.60883 -0.62985,1.77745 -0.27024,0.2878 -1.01399,0.65588 z"
           id="path1084" />
        <circle
           style="fill:none;fill-opacity:1;stroke:#000000;stroke-width:0.264583"
           id="path1086"
           cx="0"
           cy="0"
           r="0.75" />
      </g>
    </g>
    <g
       inkscape:label="Rendered Gears"
       transform="rotate(3.7911412,-2404.6365,3177.9804)"
       id="g1128"
       style="fill:#ffffff;fill-opacity:1">
      <path
         style="fill:#ffffff;fill-opacity:1;stroke:#000000;stroke-width:0.264583"
         d="m 17.4505,-1.40525 0.4384,-0.0353 1.1688,0.19144 1.6246,0.67976 v 1.1387 l -1.6246,0.67976 -1.1688,0.19144 -0.4384,-0.0353 -0.2308,1.75392 0.4325,0.07935 1.0794,0.48743 1.3933,1.07708 L 19.8302,5.90292 18.085,6.13904 16.9065,6.02145 16.4922,5.8739 15.8153,7.50829 16.2125,7.6969 17.129,8.44709 18.1961,9.84809 17.6267,10.8342 15.8799,10.6106 14.772,10.192 14.41,9.94226 l -1.0769,1.40344 0.3349,0.285 0.6911,0.9619 0.6681,1.6294 -0.8052,0.8052 -1.6294,-0.6681 -0.9619,-0.6911 -0.285,-0.3349 -1.40344,1.0769 0.24974,0.362 0.4186,1.1079 0.2236,1.7468 L 9.84809,18.1961 8.44709,17.129 7.6969,16.2125 7.50829,15.8153 5.8739,16.4922 6.02145,16.9065 6.13904,18.085 5.90292,19.8302 4.80303,20.1249 3.72595,18.7316 3.23852,17.6522 3.15917,17.2197 l -1.75392,0.2308 0.0353,0.4384 -0.19144,1.1688 -0.67976,1.6246 h -1.1387 l -0.67976,-1.6246 -0.19144,-1.1688 0.0353,-0.4384 -1.75392,-0.2308 -0.07935,0.4325 -0.48743,1.0794 -1.07708,1.3933 -1.09989,-0.2947 -0.23612,-1.7452 0.11759,-1.1785 0.14755,-0.4143 -1.63439,-0.6769 -0.18861,0.3972 -0.75019,0.9165 -1.401,1.0671 -0.98611,-0.5694 0.2236,-1.7468 0.4186,-1.1079 0.24974,-0.362 -1.40344,-1.0769 -0.285,0.3349 -0.9619,0.6911 -1.6294,0.6681 -0.8052,-0.8052 0.6681,-1.6294 0.6911,-0.9619 0.3349,-0.285 -1.0769,-1.40344 -0.362,0.24974 -1.1079,0.4186 -1.7468,0.2236 -0.5694,-0.98611 1.0671,-1.401 0.9165,-0.75019 0.3972,-0.18861 -0.6769,-1.63439 -0.4143,0.14755 -1.1785,0.11759 -1.7452,-0.23612 -0.2947,-1.09989 1.3933,-1.07708 1.0794,-0.48743 0.4325,-0.07935 -0.2308,-1.75392 -0.4384,0.0353 -1.1688,-0.19144 -1.6246,-0.67976 v -1.1387 l 1.6246,-0.67976 1.1688,-0.19144 0.4384,0.0353 0.2308,-1.75392 -0.4325,-0.07935 -1.0794,-0.48743 -1.3933,-1.07708 0.2947,-1.09989 1.7452,-0.23612 1.1785,0.11759 0.4143,0.14755 0.6769,-1.63439 -0.3972,-0.18861 -0.9165,-0.75019 -1.0671,-1.401 0.5694,-0.98611 1.7468,0.2236 1.1079,0.4186 0.362,0.24974 1.0769,-1.40344 -0.3349,-0.285 -0.6911,-0.9619 -0.6681,-1.6294 0.8052,-0.8052 1.6294,0.6681 0.9619,0.6911 0.285,0.3349 1.40344,-1.0769 -0.24974,-0.362 -0.4186,-1.1079 -0.2236,-1.7468 0.98611,-0.5694 1.401,1.0671 0.75019,0.9165 0.18861,0.3972 1.63439,-0.6769 -0.14755,-0.4143 -0.11759,-1.1785 0.23612,-1.7452 1.09989,-0.2947 1.07708,1.3933 0.48743,1.0794 0.07935,0.4325 1.75392,-0.2308 -0.0353,-0.4384 0.19144,-1.1688 0.67976,-1.6246 h 1.1387 l 0.67976,1.6246 0.19144,1.1688 -0.0353,0.4384 1.75392,0.2308 0.07935,-0.4325 0.48743,-1.0794 1.07708,-1.3933 1.09989,0.2947 0.23612,1.7452 -0.11759,1.1785 -0.14755,0.4143 1.63439,0.6769 0.18861,-0.3972 0.75019,-0.9165 1.401,-1.0671 0.98611,0.5694 -0.2236,1.7468 -0.4186,1.1079 -0.24974,0.362 1.40344,1.0769 0.285,-0.3349 0.9619,-0.6911 1.6294,-0.6681 0.8052,0.8052 -0.6681,1.6294 -0.6911,0.9619 -0.3349,0.285 1.0769,1.40344 0.362,-0.24974 1.1079,-0.4186 1.7468,-0.2236 0.5694,0.98611 -1.0671,1.401 -0.9165,0.75019 -0.3972,0.18861 0.6769,1.63439 0.4143,-0.14755 1.1785,-0.11759 1.7452,0.23612 0.2947,1.09989 -1.3933,1.07708 -1.0794,0.48743 -0.4325,0.07935 z"
         id="path1124" />
      <circle
         style="fill:#ffffff;fill-opacity:1;stroke:#000000;stroke-width:0.264583"
         id="path1126"
         cx="0"
         cy="0"
         r="0.75" />
    </g>
    <g
       inkscape:label="Rendered Gears"
       transform="translate(204.86479,165.94805)"
       id="g1170">
      <path
         style="fill:none;stroke:#000000;stroke-width:0.264583"
         d="m 4.6685,-1.00118 1.18078,-0.25322 0.39459,0.01242 1.70222,0.81147 V 0.43051 L 6.24387,1.24198 5.84928,1.2544 4.6685,1.00118 4.00907,2.59319 5.02306,3.24907 5.2933,3.53687 5.92315,5.31432 5.31432,5.92315 3.53687,5.2933 3.24907,5.02306 2.59319,4.00907 1.00118,4.6685 1.2544,5.84928 1.24198,6.24387 0.43051,7.94609 H -0.43051 L -1.24198,6.24387 -1.2544,5.84928 -1.00118,4.6685 -2.59319,4.00907 -3.24907,5.02306 -3.53687,5.2933 -5.31432,5.92315 -5.92315,5.31432 -5.2933,3.53687 -5.02306,3.24907 -4.00907,2.59319 -4.6685,1.00118 -5.84928,1.2544 -6.24387,1.24198 -7.94609,0.43051 v -0.86102 l 1.70222,-0.81147 0.39459,-0.01242 1.18078,0.25322 0.65943,-1.59201 -1.01399,-0.65588 -0.27024,-0.2878 -0.62985,-1.77745 0.60883,-0.60883 1.77745,0.62985 0.2878,0.27024 0.65588,1.01399 1.59201,-0.65943 -0.25322,-1.18078 0.01242,-0.39459 0.81147,-1.70222 h 0.86102 l 0.81147,1.70222 0.01242,0.39459 -0.25322,1.18078 1.59201,0.65943 0.65588,-1.01399 0.2878,-0.27024 1.77745,-0.62985 0.60883,0.60883 -0.62985,1.77745 -0.27024,0.2878 -1.01399,0.65588 z"
         id="path1166" />
      <circle
         style="fill:none;stroke:#000000;stroke-width:0.264583"
         id="path1168"
         cx="0"
         cy="0"
         r="0.75" />
    </g>
    <g
       inkscape:label="Rendered Gears"
       transform="rotate(1.831283,-5024.3704,7734.8143)"
       id="g1215"
       style="fill:#ffffff;fill-opacity:1">
      <path
         style="fill:#ffffff;fill-opacity:1;stroke:#000000;stroke-width:0.264583"
         d="m 30.1968,-1.60485 1.6097,0.35517 1.6106,0.6444 v 1.21056 l -1.6106,0.6444 -1.6097,0.35517 -0.1207,1.53388 1.5343,0.6026 1.4899,0.88842 -0.1894,1.19566 -1.6915,0.38451 -1.6454,0.099 -0.3592,1.4961 1.4211,0.8352 1.3327,1.11056 -0.3741,1.15132 -1.7309,0.1152 -1.6406,-0.1597 -0.5888,1.4215 1.2729,1.0472 1.1425,1.3054 -0.5496,1.0786 -1.7276,-0.157 -1.5954,-0.4143 -0.804,1.3119 1.0935,1.2334 0.9242,1.4681 -0.7115,0.9793 -1.6818,-0.4253 -1.511,-0.6588 -0.9992,1.17 0.887,1.3893 0.6832,1.5945 -0.856,0.856 -1.5945,-0.6832 -1.3893,-0.887 -1.17,0.9992 0.6588,1.511 0.4253,1.6818 -0.9793,0.7115 -1.4681,-0.9242 -1.2334,-1.0935 -1.3119,0.804 0.4143,1.5954 0.157,1.7276 -1.0786,0.5496 -1.3054,-1.1425 -1.0472,-1.2729 -1.4215,0.5888 0.1597,1.6406 -0.1152,1.7309 -1.15132,0.3741 -1.11056,-1.3327 -0.8352,-1.4211 -1.4961,0.3592 -0.099,1.6454 -0.38451,1.6915 -1.19566,0.1894 -0.88842,-1.4899 -0.6026,-1.5343 -1.53388,0.1207 -0.35517,1.6097 -0.6444,1.6106 h -1.21056 l -0.6444,-1.6106 -0.35517,-1.6097 -1.53388,-0.1207 -0.6026,1.5343 -0.88842,1.4899 -1.19566,-0.1894 -0.38451,-1.6915 -0.099,-1.6454 -1.4961,-0.3592 -0.8352,1.4211 -1.11056,1.3327 -1.15132,-0.3741 -0.1152,-1.7309 0.1597,-1.6406 -1.4215,-0.5888 -1.0472,1.2729 -1.3054,1.1425 -1.0786,-0.5496 0.157,-1.7276 0.4143,-1.5954 -1.3119,-0.804 -1.2334,1.0935 -1.4681,0.9242 -0.9793,-0.7115 0.4253,-1.6818 0.6588,-1.511 -1.17,-0.9992 -1.3893,0.887 -1.5945,0.6832 -0.856,-0.856 0.6832,-1.5945 0.887,-1.3893 -0.9992,-1.17 -1.511,0.6588 -1.6818,0.4253 -0.7115,-0.9793 0.9242,-1.4681 1.0935,-1.2334 -0.804,-1.3119 -1.5954,0.4143 -1.7276,0.157 -0.5496,-1.0786 1.1425,-1.3054 1.2729,-1.0472 -0.5888,-1.4215 -1.6406,0.1597 -1.7309,-0.1152 -0.3741,-1.15132 1.3327,-1.11056 1.4211,-0.8352 -0.3592,-1.4961 -1.6454,-0.099 -1.6915,-0.38451 -0.1894,-1.19566 1.4899,-0.88842 1.5343,-0.6026 -0.1207,-1.53388 -1.6097,-0.35517 -1.6106,-0.6444 v -1.21056 l 1.6106,-0.6444 1.6097,-0.35517 0.1207,-1.53388 -1.5343,-0.6026 -1.4899,-0.88842 0.1894,-1.19566 1.6915,-0.38451 1.6454,-0.099 0.3592,-1.4961 -1.4211,-0.8352 -1.3327,-1.11056 0.3741,-1.15132 1.7309,-0.1152 1.6406,0.1597 0.5888,-1.4215 -1.2729,-1.0472 -1.1425,-1.3054 0.5496,-1.0786 1.7276,0.157 1.5954,0.4143 0.804,-1.3119 -1.0935,-1.2334 -0.9242,-1.4681 0.7115,-0.9793 1.6818,0.4253 1.511,0.6588 0.9992,-1.17 -0.887,-1.3893 -0.6832,-1.5945 0.856,-0.856 1.5945,0.6832 1.3893,0.887 1.17,-0.9992 -0.6588,-1.511 -0.4253,-1.6818 0.9793,-0.7115 1.4681,0.9242 1.2334,1.0935 1.3119,-0.804 -0.4143,-1.5954 -0.157,-1.7276 1.0786,-0.5496 1.3054,1.1425 1.0472,1.2729 1.4215,-0.5888 -0.1597,-1.6406 0.1152,-1.7309 1.15132,-0.3741 1.11056,1.3327 0.8352,1.4211 1.4961,-0.3592 0.099,-1.6454 0.38451,-1.6915 1.19566,-0.1894 0.88842,1.4899 0.6026,1.5343 1.53388,-0.1207 0.35517,-1.6097 0.6444,-1.6106 h 1.21056 l 0.6444,1.6106 0.35517,1.6097 1.53388,0.1207 0.6026,-1.5343 0.88842,-1.4899 1.19566,0.1894 0.38451,1.6915 0.099,1.6454 1.4961,0.3592 0.8352,-1.4211 1.11056,-1.3327 1.15132,0.3741 0.1152,1.7309 -0.1597,1.6406 1.4215,0.5888 1.0472,-1.2729 1.3054,-1.1425 1.0786,0.5496 -0.157,1.7276 -0.4143,1.5954 1.3119,0.804 1.2334,-1.0935 1.4681,-0.9242 0.9793,0.7115 -0.4253,1.6818 -0.6588,1.511 1.17,0.9992 1.3893,-0.887 1.5945,-0.6832 0.856,0.856 -0.6832,1.5945 -0.887,1.3893 0.9992,1.17 1.511,-0.6588 1.6818,-0.4253 0.7115,0.9793 -0.9242,1.4681 -1.0935,1.2334 0.804,1.3119 1.5954,-0.4143 1.7276,-0.157 0.5496,1.0786 -1.1425,1.3054 -1.2729,1.0472 0.5888,1.4215 1.6406,-0.1597 1.7309,0.1152 0.3741,1.15132 -1.3327,1.11056 -1.4211,0.8352 0.3592,1.4961 1.6454,0.099 1.6915,0.38451 0.1894,1.19566 -1.4899,0.88842 -1.5343,0.6026 z"
         id="path1211" />
      <circle
         style="fill:#ffffff;fill-opacity:1;stroke:#000000;stroke-width:0.264583"
         id="path1213"
         cx="0"
         cy="0"
         r="0.75" />
    </g>
    <g
       inkscape:label="Rendered Gears"
       transform="matrix(1.0000004,0,0,0.99989621,158.90273,167.32379)"
       id="g974"
       style="fill:#ffffff;fill-opacity:1">
      <path
         style="fill:#ffffff;stroke:#000000;stroke-width:0.264583;fill-opacity:1"
         d="m 4.6685,-1.00118 1.18078,-0.25322 0.39459,0.01242 1.70222,0.81147 V 0.43051 L 6.24387,1.24198 5.84928,1.2544 4.6685,1.00118 4.00907,2.59319 5.02306,3.24907 5.2933,3.53687 5.92315,5.31432 5.31432,5.92315 3.53687,5.2933 3.24907,5.02306 2.59319,4.00907 1.00118,4.6685 1.2544,5.84928 1.24198,6.24387 0.43051,7.94609 H -0.43051 L -1.24198,6.24387 -1.2544,5.84928 -1.00118,4.6685 -2.59319,4.00907 -3.24907,5.02306 -3.53687,5.2933 -5.31432,5.92315 -5.92315,5.31432 -5.2933,3.53687 -5.02306,3.24907 -4.00907,2.59319 -4.6685,1.00118 -5.84928,1.2544 -6.24387,1.24198 -7.94609,0.43051 v -0.86102 l 1.70222,-0.81147 0.39459,-0.01242 1.18078,0.25322 0.65943,-1.59201 -1.01399,-0.65588 -0.27024,-0.2878 -0.62985,-1.77745 0.60883,-0.60883 1.77745,0.62985 0.2878,0.27024 0.65588,1.01399 1.59201,-0.65943 -0.25322,-1.18078 0.01242,-0.39459 0.81147,-1.70222 h 0.86102 l 0.81147,1.70222 0.01242,0.39459 -0.25322,1.18078 1.59201,0.65943 0.65588,-1.01399 0.2878,-0.27024 1.77745,-0.62985 0.60883,0.60883 -0.62985,1.77745 -0.27024,0.2878 -1.01399,0.65588 z"
         id="path970" />
      <circle
         style="fill:#ffffff;stroke:#000000;stroke-width:0.264583;fill-opacity:1"
         id="path972"
         cx="0"
         cy="0"
         r="0.75" />
    </g>
  </g>
</svg>
